<svg xmlns="http://www.w3.org/2000/svg" xmlns:xlink="http://www.w3.org/1999/xlink" width="500" zoomAndPan="magnify" viewBox="0 0 375 374.999991" height="500" preserveAspectRatio="xMidYMid meet" version="1.0"><defs><clipPath id="1f8fad4642"><path d="M 88 28.039062 L 287 28.039062 L 287 263 L 88 263 Z M 88 28.039062 " clip-rule="nonzero"/></clipPath><clipPath id="4fc2d0c96f"><path d="M 38 151 L 336 151 L 336 346.738281 L 38 346.738281 Z M 38 151 " clip-rule="nonzero"/></clipPath><clipPath id="5dcc0b0feb"><path d="M 272 41 L 364.285156 41 L 364.285156 133 L 272 133 Z M 272 41 " clip-rule="nonzero"/></clipPath><clipPath id="d044a10b7b"><path d="M 11.035156 41 L 109 41 L 109 140 L 11.035156 140 Z M 11.035156 41 " clip-rule="nonzero"/></clipPath></defs><g clip-path="url(#1f8fad4642)"><path fill="#ef3021" d="M 286.261719 144.683594 C 286.261719 144.683594 266.28125 147.652344 257.441406 174.023438 C 255 181.304688 251.285156 186.375 247.183594 189.898438 C 247.171875 189.914062 247.152344 189.925781 247.136719 189.941406 C 245.558594 191.273438 243.171875 189.59375 244.042969 187.769531 C 266.089844 141.425781 239.492188 106.921875 239.195312 106.542969 C 243.367188 125.804688 240.320312 137.890625 235.535156 145.402344 C 232.703125 149.851562 225.449219 146.832031 227.0625 141.871094 C 238.652344 106.242188 210.683594 87.210938 189.328125 69.199219 C 165.09375 48.761719 185.398438 28 185.398438 28 C 148.394531 49.753906 150.683594 79.417969 174.917969 101.832031 C 180.121094 106.644531 183.269531 111.273438 185.007812 115.578125 C 189.316406 126.230469 175.675781 134.863281 167.820312 126.511719 C 149.234375 106.753906 125.144531 108.757812 125.144531 108.757812 C 148.257812 118.597656 153.707031 135.34375 153.855469 148.59375 C 153.976562 159.300781 140.875 164.625 133.601562 156.8125 C 130.003906 152.949219 127.644531 148.933594 126.105469 145.1875 C 122.386719 136.15625 123.460938 128.664062 123.480469 128.511719 C 123.476562 128.515625 123.476562 128.523438 123.46875 128.535156 C 122.894531 129.371094 104.550781 156.679688 123.808594 189.929688 C 128.769531 198.5 116.953125 207.042969 109.546875 200.222656 C 109.429688 200.113281 109.3125 200.003906 109.195312 199.886719 C 95.6875 186.785156 88.984375 168.507812 88.984375 168.507812 C 80.867188 234.230469 133.292969 256.15625 157.324219 262.699219 C 157.632812 262.78125 157.8125 262.363281 157.542969 262.191406 C 143.890625 253.597656 134.769531 240.09375 133.945312 224.542969 C 133.726562 220.476562 134.09375 216.488281 134.976562 212.648438 C 135.03125 212.390625 135.09375 212.128906 135.15625 211.875 C 136.257812 214.910156 141.074219 226.695312 151.296875 232.269531 C 154.007812 233.75 157.035156 230.820312 155.261719 228.449219 C 151.742188 223.722656 148.746094 216.65625 151.457031 207.671875 C 153.769531 200 151.683594 193.683594 148.636719 189.019531 C 145.144531 183.675781 140.398438 180.511719 139.554688 179.976562 C 143.273438 182.191406 147.40625 183.5 150.933594 186.191406 C 151.078125 186.304688 151.222656 186.417969 151.367188 186.53125 C 154.273438 188.808594 156.832031 191.507812 158.578125 194.613281 C 161.296875 199.457031 160.21875 209.996094 167.621094 211.421875 C 173.851562 212.621094 176.386719 206.152344 174.59375 201.824219 C 172.386719 196.480469 168.609375 191.828125 166.21875 186.566406 C 165.230469 184.378906 164.289062 181.988281 164.929688 179.644531 C 165.136719 178.878906 165.4375 178.136719 165.804688 177.417969 C 166.789062 175.480469 168.25 173.703125 169.65625 172.042969 C 174.253906 166.609375 181.914062 156.429688 173.828125 150.65625 C 174.132812 150.769531 186.152344 155.386719 181.324219 168.734375 C 181.324219 168.734375 180.882812 170.816406 181.40625 172.554688 C 182.105469 174.855469 184.496094 176.550781 191.863281 171.984375 C 192.171875 171.792969 192.472656 171.601562 192.765625 171.40625 C 204.707031 163.488281 202.855469 153.621094 197.78125 146.96875 C 192.589844 140.171875 194.695312 130.179688 207.484375 125.429688 C 205.472656 126.292969 203.476562 130.964844 202.839844 132.589844 C 201.359375 136.355469 201.875 140.59375 205.253906 143.359375 C 208.203125 145.785156 211.160156 147.734375 213.082031 151.027344 C 217.324219 158.308594 214.132812 166.484375 209.714844 173.101562 C 209.488281 173.433594 209.261719 173.761719 209.035156 174.089844 C 198.875 188.578125 213.011719 195.679688 218.667969 192.515625 C 223.898438 189.59375 225.214844 182.96875 220.363281 176.484375 C 219.96875 175.953125 219.53125 175.421875 219.050781 174.898438 C 219.050781 174.898438 222.558594 175.832031 225.675781 178.984375 C 229.144531 182.5 232.128906 188.78125 229.179688 199.59375 C 223.585938 220.078125 248.34375 208.472656 240.6875 194.230469 C 241.160156 194.894531 253.035156 211.941406 240.746094 229.488281 C 238.597656 232.554688 243.152344 235.820312 245.914062 233.1875 C 249.046875 230.207031 251.785156 226.09375 253.242188 220.425781 C 253.421875 230.566406 250.011719 240.128906 243.96875 248.199219 C 239.941406 253.582031 234.75 258.300781 228.671875 262.089844 C 228.40625 262.257812 228.585938 262.671875 228.894531 262.59375 C 285.621094 248.445312 281.660156 194.039062 277.417969 176.65625 C 272.832031 157.871094 286.261719 144.683594 286.261719 144.683594 " fill-opacity="1" fill-rule="nonzero"/></g><path fill="#211c1d" d="M 108.429688 106.191406 L 107.9375 105.984375 L 108.382812 105.949219 C 108.394531 106.03125 108.417969 106.109375 108.429688 106.191406 " fill-opacity="1" fill-rule="nonzero"/><path fill="#100f0d" d="M 166.460938 119.394531 L 181.617188 119.394531 C 181.589844 118.710938 181.4375 117.957031 181.109375 117.140625 C 180.96875 116.789062 180.820312 116.449219 180.652344 116.097656 C 175.324219 116.414062 170.089844 117.113281 164.996094 118.167969 C 165.488281 118.5625 165.976562 118.96875 166.460938 119.394531 " fill-opacity="1" fill-rule="nonzero"/><path fill="#100f0d" d="M 172.261719 124.792969 L 178.453125 124.792969 C 179.320312 124.296875 180.085938 123.613281 180.644531 122.78125 C 180.707031 122.6875 180.769531 122.59375 180.828125 122.496094 L 169.773438 122.496094 C 170.144531 122.871094 170.515625 123.253906 170.886719 123.648438 C 171.324219 124.105469 171.777344 124.492188 172.261719 124.792969 " fill-opacity="1" fill-rule="nonzero"/><path fill="#100f0d" d="M 129.085938 141.105469 L 148.921875 141.105469 C 148.453125 138.65625 147.757812 136.332031 146.839844 134.125 L 127.65625 134.125 C 127.832031 136.074219 128.238281 138.46875 129.085938 141.105469 " fill-opacity="1" fill-rule="nonzero"/><path fill="#100f0d" d="M 233.289062 134.125 C 232.914062 136.421875 232.378906 138.746094 231.683594 141.105469 L 233.171875 141.105469 C 234.285156 138.976562 235.148438 136.652344 235.769531 134.125 L 233.289062 134.125 " fill-opacity="1" fill-rule="nonzero"/><path fill="#100f0d" d="M 256.402344 141.105469 L 256.972656 141.105469 C 256.761719 140.929688 256.550781 140.757812 256.34375 140.589844 C 256.363281 140.757812 256.382812 140.929688 256.402344 141.105469 " fill-opacity="1" fill-rule="nonzero"/><path fill="#100f0d" d="M 149.386719 144.203125 L 130.257812 144.203125 C 130.59375 144.980469 130.957031 145.75 131.363281 146.5 L 149.574219 146.5 C 149.53125 145.726562 149.46875 144.960938 149.386719 144.203125 " fill-opacity="1" fill-rule="nonzero"/><path fill="#100f0d" d="M 262.988281 146.5 C 262.183594 145.726562 261.371094 144.960938 260.539062 144.203125 L 256.707031 144.203125 C 256.761719 144.960938 256.808594 145.726562 256.84375 146.5 L 262.988281 146.5 " fill-opacity="1" fill-rule="nonzero"/><path fill="#100f0d" d="M 102.796875 155.835938 C 100.949219 158.089844 99.191406 160.414062 97.53125 162.816406 L 111.078125 162.816406 C 110.902344 160.484375 110.867188 158.152344 110.957031 155.835938 L 102.796875 155.835938 " fill-opacity="1" fill-rule="nonzero"/><path fill="#100f0d" d="M 210.539062 155.835938 L 205.832031 155.835938 C 205.972656 157.371094 205.921875 158.898438 205.671875 160.394531 C 205.53125 161.21875 205.335938 162.027344 205.085938 162.816406 L 210.175781 162.816406 C 210.933594 160.261719 211.058594 157.929688 210.539062 155.835938 " fill-opacity="1" fill-rule="nonzero"/><path fill="#100f0d" d="M 257.722656 162.816406 C 259.144531 160.199219 260.667969 157.878906 262.257812 155.835938 L 256.789062 155.835938 C 256.648438 158.097656 256.410156 160.429688 256.0625 162.816406 L 257.722656 162.816406 " fill-opacity="1" fill-rule="nonzero"/><path fill="#100f0d" d="M 94.015625 168.214844 L 111.6875 168.214844 C 111.570312 167.445312 111.464844 166.675781 111.371094 165.917969 L 95.457031 165.917969 C 94.96875 166.675781 94.492188 167.445312 94.015625 168.214844 " fill-opacity="1" fill-rule="nonzero"/><path fill="#100f0d" d="M 208.984375 165.917969 L 203.765625 165.917969 C 203.347656 166.699219 202.863281 167.464844 202.316406 168.214844 L 207.800781 168.214844 C 208.242188 167.433594 208.636719 166.664062 208.984375 165.917969 " fill-opacity="1" fill-rule="nonzero"/><path fill="#100f0d" d="M 255.109375 168.214844 L 255.136719 168.214844 C 255.464844 167.421875 255.808594 166.65625 256.152344 165.917969 L 255.5625 165.917969 C 255.421875 166.675781 255.277344 167.4375 255.109375 168.214844 " fill-opacity="1" fill-rule="nonzero"/><path fill="#100f0d" d="M 97.859375 177.546875 C 99.042969 179.71875 100.445312 182.089844 102.046875 184.527344 L 116.40625 184.527344 C 115.414062 182.230469 114.558594 179.898438 113.835938 177.546875 L 97.859375 177.546875 " fill-opacity="1" fill-rule="nonzero"/><path fill="#100f0d" d="M 170.636719 177.546875 C 170.222656 178.132812 169.851562 178.71875 169.558594 179.304688 C 169.289062 179.824219 169.109375 180.289062 168.984375 180.742188 C 168.738281 181.636719 169.265625 183.070312 169.90625 184.527344 L 201.300781 184.527344 C 201.167969 182.550781 201.429688 180.214844 202.421875 177.546875 L 190.410156 177.546875 C 188.199219 178.566406 186.285156 179.046875 184.53125 179.046875 C 182.730469 179.046875 181.148438 178.519531 179.902344 177.546875 L 170.636719 177.546875 " fill-opacity="1" fill-rule="nonzero"/><path fill="#100f0d" d="M 281.921875 177.546875 C 282.265625 179.195312 282.699219 181.574219 283.0625 184.527344 L 288.511719 184.527344 C 287.574219 182.164062 286.550781 179.832031 285.445312 177.546875 L 281.921875 177.546875 " fill-opacity="1" fill-rule="nonzero"/><path fill="#100f0d" d="M 83.90625 189.925781 L 84.277344 189.925781 C 84.257812 189.625 84.230469 189.332031 84.210938 189.03125 C 84.105469 189.324219 84.003906 189.625 83.90625 189.925781 " fill-opacity="1" fill-rule="nonzero"/><path fill="#100f0d" d="M 119 189.925781 C 118.59375 189.164062 118.203125 188.394531 117.824219 187.625 L 104.199219 187.625 C 104.746094 188.394531 105.320312 189.164062 105.921875 189.925781 L 119 189.925781 " fill-opacity="1" fill-rule="nonzero"/><path fill="#100f0d" d="M 202.765625 189.847656 C 202.449219 189.238281 202.121094 188.5 201.855469 187.625 L 171.46875 187.625 C 171.898438 188.386719 172.34375 189.148438 172.816406 189.925781 L 202.808594 189.925781 C 202.792969 189.898438 202.78125 189.875 202.765625 189.847656 " fill-opacity="1" fill-rule="nonzero"/><path fill="#100f0d" d="M 283.398438 187.625 C 283.46875 188.367188 283.523438 189.132812 283.582031 189.925781 L 290.488281 189.925781 C 290.226562 189.148438 289.964844 188.386719 289.683594 187.625 L 283.398438 187.625 " fill-opacity="1" fill-rule="nonzero"/><path fill="#100f0d" d="M 79.804688 206.238281 L 87.214844 206.238281 C 86.570312 203.953125 86.015625 201.632812 85.5625 199.257812 L 81.234375 199.257812 C 80.679688 201.554688 80.203125 203.886719 79.804688 206.238281 " fill-opacity="1" fill-rule="nonzero"/><path fill="#100f0d" d="M 156.136719 206.238281 L 157.558594 206.238281 C 157.160156 205.015625 156.859375 203.792969 156.597656 202.664062 C 156.53125 203.851562 156.375 205.042969 156.136719 206.238281 " fill-opacity="1" fill-rule="nonzero"/><path fill="#100f0d" d="M 178.480469 200.226562 C 179.257812 202.105469 179.511719 204.207031 179.265625 206.238281 L 224.199219 206.238281 C 224.03125 204.214844 224.273438 201.882812 224.921875 199.257812 L 178.0625 199.257812 C 178.207031 199.578125 178.347656 199.898438 178.480469 200.226562 " fill-opacity="1" fill-rule="nonzero"/><path fill="#100f0d" d="M 283.765625 199.257812 C 283.699219 201.496094 283.554688 203.828125 283.292969 206.238281 L 294.589844 206.238281 C 294.195312 203.886719 293.71875 201.554688 293.164062 199.257812 L 283.765625 199.257812 " fill-opacity="1" fill-rule="nonzero"/><path fill="#100f0d" d="M 79.023438 211.632812 L 88.972656 211.632812 C 88.949219 211.578125 88.929688 211.515625 88.910156 211.460938 C 88.65625 210.753906 88.40625 210.050781 88.171875 209.339844 L 79.328125 209.339844 C 79.214844 210.105469 79.117188 210.867188 79.023438 211.632812 " fill-opacity="1" fill-rule="nonzero"/><path fill="#100f0d" d="M 154.839844 211.632812 L 160.304688 211.632812 C 159.730469 210.925781 159.246094 210.148438 158.832031 209.339844 L 155.34375 209.339844 C 155.128906 210.105469 154.960938 210.875 154.839844 211.632812 " fill-opacity="1" fill-rule="nonzero"/><path fill="#100f0d" d="M 178.46875 209.339844 C 178.179688 210.042969 177.828125 210.710938 177.410156 211.34375 C 177.347656 211.4375 177.277344 211.535156 177.199219 211.632812 L 226.101562 211.632812 C 225.585938 210.949219 225.171875 210.183594 224.863281 209.339844 L 178.46875 209.339844 " fill-opacity="1" fill-rule="nonzero"/><path fill="#100f0d" d="M 242.039062 210.414062 C 241.625 210.847656 241.183594 211.257812 240.726562 211.632812 L 242.101562 211.632812 C 242.089844 211.222656 242.066406 210.816406 242.039062 210.414062 " fill-opacity="1" fill-rule="nonzero"/><path fill="#100f0d" d="M 282.550781 211.632812 L 295.371094 211.632812 C 295.277344 210.867188 295.179688 210.105469 295.066406 209.339844 L 282.910156 209.339844 C 282.804688 210.101562 282.683594 210.867188 282.550781 211.632812 " fill-opacity="1" fill-rule="nonzero"/><path fill="#100f0d" d="M 78.277344 224.457031 C 78.277344 225.625 78.296875 226.789062 78.332031 227.949219 L 97.328125 227.949219 C 95.792969 225.695312 94.398438 223.363281 93.132812 220.96875 L 78.332031 220.96875 C 78.296875 222.125 78.277344 223.292969 78.277344 224.457031 " fill-opacity="1" fill-rule="nonzero"/><path fill="#100f0d" d="M 138.507812 227.949219 L 139.671875 227.949219 C 139.1875 227.382812 138.722656 226.816406 138.289062 226.246094 C 138.34375 226.816406 138.421875 227.382812 138.507812 227.949219 " fill-opacity="1" fill-rule="nonzero"/><path fill="#100f0d" d="M 280.023438 222.101562 C 279.386719 224.105469 278.671875 226.058594 277.878906 227.949219 L 296.0625 227.949219 C 296.097656 226.789062 296.117188 225.625 296.117188 224.457031 C 296.117188 223.292969 296.097656 222.125 296.0625 220.96875 L 280.367188 220.96875 C 280.261719 221.34375 280.144531 221.722656 280.023438 222.101562 " fill-opacity="1" fill-rule="nonzero"/><path fill="#100f0d" d="M 101.328125 233.347656 C 100.703125 232.589844 100.109375 231.824219 99.535156 231.050781 L 78.480469 231.050781 C 78.519531 231.816406 78.570312 232.585938 78.640625 233.347656 L 101.328125 233.347656 " fill-opacity="1" fill-rule="nonzero"/><path fill="#100f0d" d="M 145.292969 233.347656 C 144.347656 232.621094 143.445312 231.851562 142.605469 231.050781 L 139.09375 231.050781 C 139.277344 231.816406 139.480469 232.585938 139.703125 233.347656 L 145.292969 233.347656 " fill-opacity="1" fill-rule="nonzero"/><path fill="#100f0d" d="M 159.28125 232.925781 C 159.210938 233.066406 159.132812 233.207031 159.058594 233.347656 L 236.359375 233.347656 C 236.097656 232.597656 235.972656 231.824219 235.984375 231.050781 L 159.914062 231.050781 C 159.800781 231.683594 159.589844 232.320312 159.28125 232.925781 " fill-opacity="1" fill-rule="nonzero"/><path fill="#100f0d" d="M 295.914062 231.050781 L 276.488281 231.050781 C 276.125 231.824219 275.734375 232.589844 275.335938 233.347656 L 295.753906 233.347656 C 295.820312 232.585938 295.875 231.816406 295.914062 231.050781 " fill-opacity="1" fill-rule="nonzero"/><path fill="#100f0d" d="M 118.945312 249.660156 C 115.953125 247.558594 113.015625 245.238281 110.195312 242.679688 L 79.804688 242.679688 C 80.203125 245.03125 80.679688 247.355469 81.226562 249.660156 L 118.945312 249.660156 " fill-opacity="1" fill-rule="nonzero"/><path fill="#100f0d" d="M 149.019531 249.660156 L 237.28125 249.660156 C 238.464844 248.386719 239.566406 247.070312 240.597656 245.691406 C 241.332031 244.703125 242.023438 243.699219 242.675781 242.679688 L 143.835938 242.679688 C 145.300781 245.128906 147.039062 247.46875 149.019531 249.660156 " fill-opacity="1" fill-rule="nonzero"/><path fill="#100f0d" d="M 294.589844 242.679688 L 269.277344 242.679688 C 267.640625 244.78125 265.855469 246.761719 263.941406 248.632812 C 263.585938 248.984375 263.226562 249.324219 262.863281 249.660156 L 293.171875 249.660156 C 293.71875 247.355469 294.195312 245.03125 294.589844 242.679688 " fill-opacity="1" fill-rule="nonzero"/><path fill="#100f0d" d="M 127.472656 255.054688 C 126.1875 254.328125 124.898438 253.5625 123.609375 252.757812 L 82.015625 252.757812 C 82.21875 253.527344 82.4375 254.296875 82.660156 255.054688 L 127.472656 255.054688 " fill-opacity="1" fill-rule="nonzero"/><path fill="#100f0d" d="M 234.132812 252.757812 L 152.082031 252.757812 C 152.929688 253.546875 153.816406 254.316406 154.742188 255.054688 L 231.414062 255.054688 C 232.351562 254.316406 233.261719 253.546875 234.132812 252.757812 " fill-opacity="1" fill-rule="nonzero"/><path fill="#100f0d" d="M 292.378906 252.757812 L 259.253906 252.757812 C 258.261719 253.554688 257.246094 254.316406 256.195312 255.054688 L 291.726562 255.054688 C 291.960938 254.296875 292.167969 253.527344 292.378906 252.757812 " fill-opacity="1" fill-rule="nonzero"/><path fill="#100f0d" d="M 288.511719 264.390625 L 237.597656 264.390625 C 235.125 265.242188 232.5625 265.996094 229.914062 266.660156 C 229.554688 266.75 229.1875 266.792969 228.820312 266.792969 C 227.140625 266.792969 225.613281 265.84375 224.847656 264.390625 L 161.417969 264.390625 C 160.683594 265.898438 159.121094 266.898438 157.40625 266.898438 C 157.003906 266.898438 156.605469 266.847656 156.214844 266.742188 C 153.8125 266.085938 151.21875 265.3125 148.496094 264.390625 L 85.875 264.390625 C 86.820312 266.757812 87.84375 269.085938 88.945312 271.371094 L 285.445312 271.371094 C 286.550781 269.085938 287.574219 266.757812 288.511719 264.390625 " fill-opacity="1" fill-rule="nonzero"/><path fill="#100f0d" d="M 283.890625 274.476562 L 90.503906 274.476562 C 90.90625 275.246094 91.3125 276.011719 91.730469 276.769531 L 282.660156 276.769531 C 283.078125 276.011719 283.488281 275.246094 283.890625 274.476562 " fill-opacity="1" fill-rule="nonzero"/><path fill="#100f0d" d="M 276.863281 286.101562 L 97.523438 286.101562 C 99.191406 288.503906 100.949219 290.824219 102.796875 293.082031 L 271.597656 293.082031 C 273.445312 290.824219 275.203125 288.503906 276.863281 286.101562 " fill-opacity="1" fill-rule="nonzero"/><path fill="#100f0d" d="M 268.957031 296.1875 L 105.4375 296.1875 C 106.125 296.960938 106.820312 297.722656 107.519531 298.476562 L 266.875 298.476562 C 267.574219 297.722656 268.269531 296.960938 268.957031 296.1875 " fill-opacity="1" fill-rule="nonzero"/><path fill="#100f0d" d="M 256.984375 307.808594 L 117.417969 307.808594 C 120.40625 310.300781 123.523438 312.632812 126.773438 314.792969 L 247.628906 314.792969 C 250.878906 312.628906 253.996094 310.296875 256.984375 307.808594 " fill-opacity="1" fill-rule="nonzero"/><path fill="#100f0d" d="M 242.675781 317.898438 L 131.71875 317.898438 C 133.058594 318.695312 134.417969 319.457031 135.789062 320.1875 L 238.605469 320.1875 C 239.980469 319.457031 241.335938 318.695312 242.675781 317.898438 " fill-opacity="1" fill-rule="nonzero"/><path fill="#100f0d" d="M 214.6875 329.527344 L 159.710938 329.527344 C 168.492188 331.804688 177.703125 333.019531 187.203125 333.019531 C 196.699219 333.019531 205.910156 331.804688 214.6875 329.527344 " fill-opacity="1" fill-rule="nonzero"/><path fill="#100f0d" d="M 255.445312 134.835938 C 256.832031 135.886719 258.191406 136.964844 259.523438 138.074219 C 260.789062 139.125 262.03125 140.203125 263.214844 141.289062 C 263.976562 141.972656 264.78125 142.730469 265.757812 143.667969 C 267.210938 145.070312 268.632812 146.515625 270.015625 148.003906 C 273.074219 145.585938 276.039062 143.941406 278.542969 142.816406 C 276.621094 140.6875 274.625 138.621094 272.5625 136.636719 C 271.519531 135.625 270.640625 134.808594 269.828125 134.0625 C 268.535156 132.890625 267.179688 131.710938 265.800781 130.566406 C 262.449219 127.78125 258.90625 125.132812 255.257812 122.703125 C 253.910156 121.804688 252.542969 120.9375 251.160156 120.101562 C 252.203125 122.730469 253.1875 125.648438 254.050781 128.824219 C 254.554688 130.691406 255.03125 132.699219 255.445312 134.835938 " fill-opacity="1" fill-rule="nonzero"/><path fill="#100f0d" d="M 104.59375 134.046875 C 103.757812 134.800781 102.882812 135.617188 101.824219 136.636719 C 98.363281 139.976562 95.101562 143.511719 92.125 147.152344 C 90.597656 149.015625 89.121094 150.929688 87.726562 152.855469 L 91.871094 164.164062 C 91.949219 164.039062 92.03125 163.90625 92.117188 163.777344 C 92.78125 162.746094 93.480469 161.691406 94.265625 160.570312 C 95.949219 158.125 97.785156 155.695312 99.722656 153.335938 C 102.460938 149.984375 105.460938 146.734375 108.640625 143.667969 C 109.621094 142.726562 110.425781 141.964844 111.195312 141.273438 C 112.105469 140.441406 113.058594 139.605469 114.039062 138.773438 C 114.507812 137.371094 115.027344 135.988281 115.609375 134.621094 C 117.71875 129.84375 120.539062 126.003906 123.074219 123.171875 C 126.195312 119.683594 128.863281 117.738281 129.183594 117.511719 C 129.191406 117.503906 129.199219 117.496094 129.207031 117.496094 C 129.210938 117.488281 129.210938 117.488281 129.210938 117.488281 L 127.679688 128.847656 C 131.347656 126.5625 135.160156 124.496094 139.074219 122.667969 C 136.601562 120.21875 133.703125 118.011719 130.367188 116.0625 C 129.863281 116.324219 129.367188 116.585938 128.875 116.855469 C 127.902344 117.378906 126.941406 117.917969 125.984375 118.472656 C 123.648438 119.808594 121.359375 121.214844 119.132812 122.703125 C 115.492188 125.132812 111.9375 127.78125 108.605469 130.558594 C 107.210938 131.714844 105.851562 132.898438 104.59375 134.046875 " fill-opacity="1" fill-rule="nonzero"/><g clip-path="url(#4fc2d0c96f)"><path fill="#100f0d" d="M 322.582031 204.300781 C 321.0625 204.800781 319.949219 206.21875 319.949219 207.90625 L 319.949219 241.023438 C 319.949219 242.714844 321.0625 244.128906 322.582031 244.632812 L 322.582031 248.359375 L 307.542969 248.359375 C 307.769531 247.230469 307.984375 246.09375 308.175781 244.976562 C 308.765625 241.472656 309.203125 237.941406 309.484375 234.476562 C 309.554688 233.605469 309.617188 232.730469 309.667969 231.921875 C 309.75 230.671875 309.792969 229.4375 309.835938 228.382812 C 309.875 226.992188 309.894531 225.707031 309.894531 224.457031 C 309.894531 223.210938 309.875 221.921875 309.835938 220.535156 C 309.722656 217.085938 309.464844 213.554688 309.050781 210.015625 C 308.945312 209.140625 308.832031 208.277344 308.710938 207.453125 C 308.558594 206.328125 308.382812 205.183594 308.175781 203.941406 C 307.984375 202.8125 307.769531 201.6875 307.542969 200.5625 L 322.582031 200.5625 Z M 64.5625 228.398438 C 64.597656 229.441406 64.644531 230.679688 64.730469 231.851562 C 64.785156 232.925781 64.84375 233.742188 64.910156 234.464844 C 65.183594 237.941406 65.625 241.476562 66.222656 244.976562 C 66.410156 246.097656 66.628906 247.230469 66.851562 248.359375 L 51.808594 248.359375 L 51.808594 244.632812 C 53.332031 244.128906 54.441406 242.714844 54.441406 241.023438 L 54.441406 207.90625 C 54.441406 206.21875 53.332031 204.800781 51.808594 204.300781 L 51.808594 200.5625 L 66.851562 200.5625 C 66.628906 201.6875 66.410156 202.8125 66.222656 203.941406 C 66.003906 205.191406 65.828125 206.34375 65.691406 207.40625 C 65.554688 208.277344 65.445312 209.140625 65.347656 210.03125 C 64.933594 213.554688 64.667969 217.09375 64.5625 220.535156 C 64.519531 221.933594 64.5 223.214844 64.5 224.457031 C 64.5 225.703125 64.519531 226.984375 64.5625 228.398438 Z M 333.265625 204.300781 L 333.265625 192.199219 C 333.265625 189.261719 330.867188 186.878906 327.917969 186.878906 C 324.976562 186.878906 322.582031 189.261719 322.582031 192.199219 L 322.582031 193.988281 L 306.046875 193.988281 C 305.324219 191.167969 304.488281 188.339844 303.550781 185.566406 C 303.257812 184.679688 302.949219 183.816406 302.648438 182.992188 C 302.246094 181.859375 301.816406 180.714844 301.324219 179.480469 C 300.257812 176.800781 299.097656 174.148438 297.871094 171.613281 C 296.15625 168.046875 294.226562 164.503906 292.148438 161.09375 C 291.628906 160.234375 291.089844 159.382812 290.53125 158.496094 C 289.648438 157.140625 288.898438 156.023438 288.195312 155.027344 C 287.46875 153.972656 286.714844 152.910156 285.921875 151.855469 C 284.253906 154.398438 282.378906 158.007812 281.382812 162.417969 C 281.667969 162.839844 281.957031 163.28125 282.265625 163.757812 C 282.777344 164.5625 283.28125 165.363281 283.769531 166.167969 C 285.683594 169.304688 287.449219 172.554688 289.03125 175.851562 C 290.15625 178.179688 291.230469 180.613281 292.203125 183.070312 C 292.652344 184.199219 293.042969 185.246094 293.429688 186.308594 C 293.710938 187.089844 293.984375 187.863281 294.253906 188.667969 C 295.328125 191.859375 296.261719 195.105469 297.023438 198.34375 C 297.589844 200.703125 298.089844 203.132812 298.507812 205.570312 C 298.699219 206.707031 298.859375 207.753906 299.003906 208.808594 C 299.117188 209.59375 299.214844 210.378906 299.308594 211.152344 C 299.683594 214.40625 299.929688 217.667969 300.027344 220.835938 C 300.070312 222.125 300.089844 223.304688 300.089844 224.457031 C 300.089844 225.609375 300.070312 226.800781 300.027344 228.074219 C 300 229.03125 299.960938 230.15625 299.875 231.320312 C 299.832031 232.101562 299.773438 232.894531 299.710938 233.679688 C 299.453125 236.878906 299.046875 240.128906 298.507812 243.347656 C 298.101562 245.730469 297.605469 248.167969 297.039062 250.570312 C 296.726562 251.835938 296.460938 252.867188 296.21875 253.777344 C 296 254.566406 295.785156 255.347656 295.539062 256.183594 C 294.570312 259.460938 293.449219 262.714844 292.203125 265.847656 C 291.230469 268.304688 290.15625 270.734375 289.015625 273.101562 C 288.527344 274.132812 287.988281 275.210938 287.414062 276.296875 C 287 277.097656 286.578125 277.882812 286.128906 278.679688 C 284.308594 281.988281 282.292969 285.234375 280.128906 288.347656 C 278.449219 290.785156 276.613281 293.222656 274.671875 295.589844 C 273.832031 296.613281 272.933594 297.667969 271.941406 298.796875 C 271.226562 299.609375 270.496094 300.398438 269.785156 301.171875 C 266.582031 304.59375 263.128906 307.851562 259.527344 310.847656 C 256.402344 313.445312 253.140625 315.882812 249.828125 318.089844 C 248.117188 319.222656 246.390625 320.308594 244.675781 321.3125 C 243.367188 322.097656 241.953125 322.890625 240.476562 323.679688 C 232.625 327.875 224.289062 331.132812 215.691406 333.363281 C 197.183594 338.15625 177.234375 338.15625 158.699219 333.363281 C 150.105469 331.132812 141.761719 327.875 133.917969 323.679688 C 132.414062 322.878906 131.039062 322.101562 129.703125 321.3125 C 127.902344 320.242188 126.179688 319.164062 124.566406 318.089844 C 121.261719 315.890625 117.996094 313.449219 114.875 310.847656 C 111.273438 307.863281 107.828125 304.605469 104.625 301.1875 C 103.898438 300.398438 103.171875 299.609375 102.460938 298.8125 C 101.460938 297.667969 100.5625 296.613281 99.714844 295.578125 C 97.796875 293.242188 95.960938 290.804688 94.253906 288.347656 C 92.101562 285.242188 90.078125 281.988281 88.242188 278.660156 C 87.808594 277.882812 87.390625 277.097656 86.96875 276.285156 C 86.4375 275.257812 85.890625 274.1875 85.359375 273.074219 C 84.238281 270.742188 83.164062 268.304688 82.183594 265.847656 C 80.917969 262.644531 79.796875 259.390625 78.851562 256.171875 C 78.621094 255.390625 78.394531 254.609375 78.179688 253.785156 C 77.871094 252.648438 77.601562 251.609375 77.367188 250.589844 C 76.792969 248.167969 76.292969 245.730469 75.886719 243.355469 C 75.347656 240.128906 74.941406 236.878906 74.675781 233.625 C 74.605469 232.863281 74.5625 232.089844 74.515625 231.25 C 74.4375 230.164062 74.394531 229.03125 74.367188 228.089844 C 74.324219 226.789062 74.304688 225.605469 74.304688 224.457031 C 74.304688 223.3125 74.324219 222.125 74.359375 220.835938 C 74.464844 217.667969 74.703125 214.414062 75.082031 211.160156 C 75.171875 210.378906 75.277344 209.59375 75.398438 208.757812 C 75.53125 207.757812 75.691406 206.714844 75.886719 205.570312 C 76.300781 203.132812 76.796875 200.703125 77.371094 198.328125 C 78.136719 195.105469 79.066406 191.851562 80.160156 188.617188 C 80.414062 187.828125 80.691406 187.054688 80.964844 186.292969 C 81.363281 185.203125 81.769531 184.117188 82.175781 183.082031 C 82.75 181.644531 83.355469 180.214844 83.984375 178.8125 C 84.082031 175.285156 84.355469 171.675781 84.8125 167.996094 L 86.464844 154.628906 C 86.375 154.761719 86.28125 154.886719 86.191406 155.015625 C 85.351562 156.234375 84.585938 157.378906 83.859375 158.511719 C 83.3125 159.351562 82.78125 160.207031 82.234375 161.097656 C 80.152344 164.503906 78.234375 168.046875 76.519531 171.613281 C 75.300781 174.148438 74.136719 176.785156 73.050781 179.507812 C 72.601562 180.652344 72.167969 181.804688 71.734375 182.992188 C 71.425781 183.855469 71.117188 184.722656 70.84375 185.554688 C 69.90625 188.339844 69.074219 191.167969 68.351562 193.988281 L 51.808594 193.988281 L 51.808594 192.199219 C 51.808594 189.261719 49.417969 186.878906 46.46875 186.878906 C 43.519531 186.878906 41.132812 189.261719 41.132812 192.199219 L 41.132812 204.300781 C 39.605469 204.800781 38.5 206.21875 38.5 207.90625 L 38.5 241.023438 C 38.5 242.714844 39.605469 244.128906 41.132812 244.632812 L 41.132812 256.726562 C 41.132812 259.664062 43.519531 262.042969 46.46875 262.042969 C 49.417969 262.042969 51.808594 259.664062 51.808594 256.726562 L 51.808594 254.945312 L 68.34375 254.945312 C 68.460938 255.390625 68.582031 255.84375 68.707031 256.3125 C 68.941406 257.183594 69.183594 258.058594 69.4375 258.925781 C 70.464844 262.414062 71.6875 265.953125 73.066406 269.453125 C 74.136719 272.132812 75.300781 274.777344 76.519531 277.304688 C 77.097656 278.511719 77.695312 279.691406 78.277344 280.800781 C 78.730469 281.675781 79.195312 282.546875 79.664062 283.386719 C 81.652344 286.988281 83.84375 290.527344 86.183594 293.90625 C 88.046875 296.578125 90.042969 299.226562 92.125 301.757812 C 93.042969 302.882812 94.007812 304.023438 95.101562 305.261719 C 95.871094 306.136719 96.648438 306.980469 97.441406 307.839844 C 100.9375 311.566406 104.683594 315.109375 108.585938 318.351562 C 111.980469 321.179688 115.523438 323.828125 119.117188 326.207031 C 120.863281 327.378906 122.738281 328.550781 124.6875 329.703125 C 126.144531 330.578125 127.648438 331.421875 129.28125 332.292969 C 137.8125 336.859375 146.882812 340.398438 156.234375 342.820312 C 166.308594 345.425781 176.722656 346.75 187.203125 346.75 C 197.679688 346.75 208.097656 345.425781 218.152344 342.820312 C 227.503906 340.398438 236.574219 336.859375 245.105469 332.292969 C 246.71875 331.4375 248.265625 330.5625 249.6875 329.71875 C 251.527344 328.628906 253.414062 327.449219 255.269531 326.210938 C 258.871094 323.820312 262.414062 321.171875 265.8125 318.351562 C 269.726562 315.09375 273.476562 311.558594 276.964844 307.828125 C 277.746094 306.988281 278.523438 306.136719 279.300781 305.25 C 280.386719 304.023438 281.355469 302.875 282.265625 301.765625 C 284.375 299.199219 286.367188 296.550781 288.195312 293.90625 C 290.542969 290.527344 292.742188 286.988281 294.71875 283.398438 C 295.191406 282.546875 295.664062 281.675781 296.113281 280.816406 C 296.734375 279.621094 297.332031 278.4375 297.863281 277.316406 C 299.097656 274.777344 300.257812 272.125 301.324219 269.445312 C 302.675781 266.035156 303.902344 262.496094 304.929688 258.964844 C 305.199219 258.097656 305.433594 257.226562 305.671875 256.347656 C 305.800781 255.90625 305.917969 255.441406 306.046875 254.945312 L 322.582031 254.945312 L 322.582031 256.726562 C 322.582031 259.664062 324.976562 262.042969 327.917969 262.042969 C 330.867188 262.042969 333.265625 259.664062 333.265625 256.726562 L 333.265625 244.632812 C 334.78125 244.128906 335.890625 242.714844 335.890625 241.023438 L 335.890625 207.90625 C 335.890625 206.21875 334.78125 204.800781 333.265625 204.300781 " fill-opacity="1" fill-rule="nonzero"/></g><path fill="#100f0d" d="M 236.976562 123.457031 C 236.976562 119.972656 236.652344 116.234375 236.007812 112.238281 C 235.964844 112.226562 235.929688 112.203125 235.886719 112.191406 C 234.375 111.535156 232.847656 110.914062 231.328125 110.324219 C 232.675781 114.128906 233.507812 118.007812 233.828125 121.976562 C 234.886719 122.453125 235.9375 122.949219 236.976562 123.457031 " fill-opacity="1" fill-rule="nonzero"/><path fill="#100f0d" d="M 178.496094 112.28125 C 176.839844 109.800781 174.691406 107.339844 172.058594 104.902344 C 171.496094 104.378906 170.945312 103.855469 170.40625 103.316406 C 165.628906 103.96875 160.890625 104.902344 156.242188 106.109375 C 153.539062 106.800781 150.820312 107.613281 148.132812 108.511719 C 152.207031 110.039062 156.515625 112.148438 160.792969 115.042969 C 166.601562 113.664062 172.519531 112.734375 178.496094 112.28125 " fill-opacity="1" fill-rule="nonzero"/><g clip-path="url(#5dcc0b0feb)"><path fill="#100f0d" d="M 361.800781 67.339844 L 319.605469 104.378906 C 316.949219 106.710938 313.371094 107.703125 309.894531 107.074219 C 307.074219 106.558594 304.566406 105.210938 302.636719 103.28125 C 300.699219 101.355469 299.347656 98.855469 298.832031 96.050781 C 298.515625 94.3125 298.605469 92.554688 299.070312 90.898438 C 299.53125 89.246094 300.367188 87.6875 301.535156 86.371094 L 338.699219 44.316406 C 339.539062 43.351562 338.761719 41.863281 337.488281 42.003906 C 337.191406 42.039062 336.914062 42.164062 336.695312 42.367188 L 285.277344 89.816406 C 283.378906 91.570312 282.347656 94.0625 282.46875 96.628906 L 282.824219 104.617188 C 283.175781 112.394531 280.226562 119.960938 274.699219 125.46875 L 272.808594 127.351562 C 273.398438 127.871094 273.972656 128.386719 274.535156 128.894531 C 275.40625 129.691406 276.332031 130.558594 277.433594 131.609375 C 277.84375 132.007812 278.257812 132.414062 278.671875 132.820312 L 280.371094 131.121094 C 285.898438 125.617188 293.492188 122.675781 301.296875 123.023438 L 309.308594 123.378906 C 311.886719 123.5 314.386719 122.472656 316.144531 120.589844 L 363.753906 69.332031 C 363.957031 69.117188 364.082031 68.835938 364.121094 68.546875 C 364.257812 67.273438 362.765625 66.5 361.800781 67.339844 " fill-opacity="1" fill-rule="nonzero"/></g><g clip-path="url(#d044a10b7b)"><path fill="#100f0d" d="M 30.980469 96.980469 C 30.820312 96.855469 30.667969 96.714844 30.519531 96.566406 C 28.539062 94.589844 28.3125 91.414062 30 89.1875 C 30.15625 88.988281 30.324219 88.789062 30.507812 88.601562 C 32.523438 86.597656 35.789062 86.507812 37.945312 88.390625 L 38.847656 89.179688 L 73.113281 119.152344 C 74.277344 120.160156 74.457031 121.929688 73.527344 123.160156 C 73.449219 123.269531 73.359375 123.367188 73.269531 123.464844 C 72.292969 124.429688 70.761719 124.5625 69.632812 123.777344 L 31.289062 97.210938 C 31.1875 97.132812 31.085938 97.054688 30.980469 96.980469 Z M 41.503906 72.203125 C 43.660156 70.054688 47.308594 70.183594 49.628906 72.496094 C 49.710938 72.582031 49.796875 72.664062 49.867188 72.75 L 50.113281 73.011719 L 83.199219 109.671875 C 84.316406 110.90625 84.328125 112.722656 83.242188 113.800781 C 82.15625 114.886719 80.34375 114.863281 79.101562 113.753906 L 42.324219 80.777344 L 42.054688 80.539062 C 40.773438 79.394531 40.019531 77.78125 39.96875 76.132812 C 39.933594 74.628906 40.472656 73.230469 41.503906 72.203125 Z M 57.964844 61.246094 C 58.144531 61.0625 58.339844 60.894531 58.546875 60.738281 C 60.785156 59.058594 63.964844 59.28125 65.949219 61.257812 C 66.097656 61.40625 66.234375 61.558594 66.363281 61.71875 C 66.445312 61.816406 66.523438 61.917969 66.59375 62.027344 L 93.25 100.230469 C 94.035156 101.363281 93.910156 102.894531 92.9375 103.855469 C 92.839844 103.953125 92.738281 104.046875 92.628906 104.121094 C 91.394531 105.046875 89.628906 104.867188 88.609375 103.699219 L 58.539062 69.550781 L 57.746094 68.652344 C 55.855469 66.503906 55.953125 63.25 57.964844 61.246094 Z M 71.644531 137.125 C 75.53125 140.058594 80.988281 139.675781 84.433594 136.25 L 92.265625 128.441406 L 96.199219 132.367188 C 96.453125 132.109375 96.703125 131.863281 96.957031 131.617188 C 98.0625 130.550781 98.996094 129.683594 99.855469 128.902344 C 100.578125 128.246094 101.328125 127.582031 102.085938 126.921875 L 97.9375 122.789062 L 105.761719 114.988281 C 108.136719 112.621094 109.054688 109.300781 108.429688 106.191406 C 108.417969 106.109375 108.394531 106.03125 108.382812 105.949219 C 108.082031 104.636719 107.511719 103.371094 106.652344 102.242188 L 81.644531 69.230469 L 61.421875 42.527344 C 61.015625 41.988281 60.28125 41.835938 59.695312 42.15625 C 56.722656 43.785156 53.65625 45.699219 50.523438 47.882812 C 44.550781 52.054688 38.394531 57.203125 32.417969 63.148438 C 26.449219 69.105469 21.289062 75.242188 17.097656 81.195312 C 14.914062 84.308594 12.988281 87.371094 11.363281 90.324219 C 11.035156 90.914062 11.195312 91.652344 11.726562 92.058594 L 38.519531 112.210938 L 71.644531 137.125 " fill-opacity="1" fill-rule="nonzero"/></g></svg>